<svg xmlns="http://www.w3.org/2000/svg" version="1.1" xmlns:xlink="http://www.w3.org/1999/xlink" xmlns:svgjs="http://svgjs.dev/svgjs" width="1000" height="1000" viewBox="0 0 1000 1000"><rect width="1000" height="1000" fill="#ffbe79"></rect><g transform="matrix(0.7,0,0,0.7,149.57575757575756,282.1265587044535)"><svg viewBox="0 0 396 247" data-background-color="#ffbe79" preserveAspectRatio="xMidYMid meet" height="623" width="1000" xmlns="http://www.w3.org/2000/svg" xmlns:xlink="http://www.w3.org/1999/xlink"><g id="tight-bounds" transform="matrix(1,0,0,1,0.2400000000000091,-0.09999999999999432)"><svg viewBox="0 0 395.52 247.2" height="247.2" width="395.52"><g><svg></svg></g><g><svg viewBox="0 0 395.52 247.2" height="247.2" width="395.52"><g transform="matrix(1,0,0,1,75.54432000000001,93.17811941227312)"><svg viewBox="0 0 244.43135999999996 60.84376117545375" height="60.84376117545375" width="244.43135999999996"><g><svg viewBox="0 0 244.43135999999996 60.84376117545375" height="60.84376117545375" width="244.43135999999996"><g><svg viewBox="0 0 244.43135999999996 60.84376117545375" height="60.84376117545375" width="244.43135999999996"><g><svg viewBox="0 0 244.43135999999996 60.84376117545375" height="60.84376117545375" width="244.43135999999996"><g><svg viewBox="0 0 244.43135999999996 60.84376117545375" height="60.84376117545375" width="244.43135999999996"><g><svg viewBox="0 0 244.43135999999996 60.84376117545375" height="60.84376117545375" width="244.43135999999996"><g transform="matrix(1,0,0,1,0,0)"><svg width="244.43135999999996" viewBox="-2.15 -37.5 173.53 43.2" height="60.84376117545375" data-palette-color="#374151"><path d="M27.85 0L22.35 0 22.35-18Q20.45-18.9 18.03-19.53 15.6-20.15 13.1-20.45L13.1-20.45Q12.5-18.25 12-15.93 11.5-13.6 11.15-11.33 10.8-9.05 10.6-6.88 10.4-4.7 10.4-2.75L10.4-2.75Q10.4-0.55 10.73 1.55 11.05 3.65 12.15 5.7L12.15 5.7Q11 5.7 9.75 5.45 8.5 5.2 7.45 4.33 6.4 3.45 5.73 1.83 5.05 0.2 5.05-2.55L5.05-2.55Q5.05-4.3 5.3-6.45 5.55-8.6 6.05-10.95 6.55-13.3 7.28-15.78 8-18.25 8.9-20.65L8.9-20.65Q7.45-20.6 6.18-20.4 4.9-20.2 3.98-19.83 3.05-19.45 2.5-18.95 1.95-18.45 1.95-17.85L1.95-17.85Q1.95-17.65 2-17.55L2-17.55Q3.3-17.15 3.3-15.9L3.3-15.9Q3.3-15 2.65-14.65 2-14.3 1.25-14.3L1.25-14.3Q0-14.3-1.07-15.03-2.15-15.75-2.15-17.55L-2.15-17.55Q-2.15-18.75-1.43-19.7-0.7-20.65 0.58-21.33 1.85-22 3.58-22.35 5.3-22.7 7.35-22.7L7.35-22.7Q7.9-22.7 8.5-22.68 9.1-22.65 9.7-22.6L9.7-22.6Q10.95-25.6 12.5-28.33 14.05-31.05 15.85-33.08 17.65-35.1 19.65-36.3 21.65-37.5 23.85-37.5L23.85-37.5Q24.6-37.5 25.73-37.35 26.85-37.2 27.85-36.8L27.85-36.8 27.85 0ZM13.6-22.1L13.6-22.1Q16.1-21.65 18.4-20.98 20.7-20.3 22.35-19.5L22.35-19.5 22.35-35.1Q21.1-35 19.9-33.98 18.7-32.95 17.57-31.2 16.45-29.45 15.45-27.13 14.45-24.8 13.6-22.1ZM32.45-8.95L32.5-34.3 37.5-35 37.5-23.15Q38.35-24 39.5-24.55 40.65-25.1 42.25-25.1L42.25-25.1Q43.6-25.1 45.05-24.63 46.5-24.15 47.75-22.95 49-21.75 49.8-19.65 50.6-17.55 50.6-14.3L50.6-14.3Q50.6-11.45 49.92-8.8 49.25-6.15 47.87-4.13 46.5-2.1 44.45-0.9 42.4 0.3 39.65 0.3L39.65 0.3Q38.1 0.3 36.77-0.18 35.45-0.65 34.5-1.73 33.55-2.8 33-4.58 32.45-6.35 32.45-8.95L32.45-8.95ZM46.15-13.15L46.15-13.15Q46.15-15.1 45.8-16.8 45.45-18.5 44.77-19.78 44.1-21.05 43.12-21.78 42.15-22.5 40.9-22.5L40.9-22.5Q39.9-22.5 39.05-22.03 38.2-21.55 37.5-20.8L37.5-20.8 37.5-7.65Q37.5-3.15 40.45-3.15L40.45-3.15Q41.85-3.15 42.92-3.98 44-4.8 44.72-6.2 45.45-7.6 45.8-9.4 46.15-11.2 46.15-13.15ZM66.8-34.3L71.8-35 71.8-8Q71.8-7.5 71.84-6.75 71.9-6 72.12-5.28 72.34-4.55 72.8-4.03 73.25-3.5 74.05-3.5L74.05-3.5Q76.5-3.5 77.65-8.95L77.65-8.95 79.5-8.95Q78.95-5.8 78.09-3.98 77.25-2.15 76.3-1.2 75.34-0.25 74.34 0.03 73.34 0.3 72.55 0.3L72.55 0.3Q71.4 0.3 70.57-0.1 69.75-0.5 69.17-1.15 68.59-1.8 68.25-2.65 67.9-3.5 67.7-4.45L67.7-4.45Q66.95-2.5 65.27-1.1 63.59 0.3 61.2 0.3L61.2 0.3Q59.7 0.3 58.17-0.3 56.65-0.9 55.42-2.27 54.2-3.65 53.42-5.83 52.65-8 52.65-11.15L52.65-11.15Q52.65-13.45 53.17-15.95 53.7-18.45 54.84-20.5 56-22.55 57.8-23.9 59.59-25.25 62.15-25.25L62.15-25.25Q62.75-25.25 63.42-25.13 64.09-25 64.72-24.7 65.34-24.4 65.9-23.88 66.45-23.35 66.8-22.6L66.8-22.6 66.8-34.3ZM62.45-3.5L62.45-3.5Q63.2-3.5 63.97-3.93 64.75-4.35 65.37-5.08 66-5.8 66.4-6.8 66.8-7.8 66.8-8.95L66.8-8.95 66.8-20.35Q66.45-21.15 65.72-21.83 65-22.5 63.84-22.5L63.84-22.5Q62.25-22.5 61.09-21.43 59.95-20.35 59.25-18.73 58.55-17.1 58.22-15.18 57.9-13.25 57.9-11.5L57.9-11.5Q57.9-7.2 59.07-5.35 60.25-3.5 62.45-3.5ZM89.49-25L94.49-25 94.49-8Q94.49-7.5 94.54-6.75 94.59-6 94.82-5.28 95.04-4.55 95.49-4.03 95.94-3.5 96.74-3.5L96.74-3.5Q99.19-3.5 100.34-8.95L100.34-8.95 102.19-8.95Q101.64-5.8 100.79-3.98 99.94-2.15 98.99-1.2 98.04-0.25 97.04 0.03 96.04 0.3 95.24 0.3L95.24 0.3Q94.09 0.3 93.27-0.1 92.44-0.5 91.87-1.15 91.29-1.8 90.94-2.65 90.59-3.5 90.39-4.4L90.39-4.4Q89.44-1.95 87.89-0.83 86.34 0.3 84.64 0.3L84.64 0.3Q83.19 0.3 81.89-0.1 80.59-0.5 79.64-1.43 78.69-2.35 78.14-3.83 77.59-5.3 77.59-7.45L77.59-7.45 77.59-25 82.59-25 82.59-8Q82.59-5.55 83.44-4.53 84.29-3.5 85.59-3.5L85.59-3.5Q86.29-3.5 86.99-3.88 87.69-4.25 88.24-4.95 88.79-5.65 89.14-6.65 89.49-7.65 89.49-8.95L89.49-8.95 89.49-25ZM100.34-34.3L105.34-35 105.34-8Q105.34-7.5 105.39-6.75 105.44-6 105.67-5.28 105.89-4.55 106.34-4.03 106.79-3.5 107.59-3.5L107.59-3.5Q110.04-3.5 111.19-8.95L111.19-8.95 113.04-8.95Q112.49-5.8 111.64-3.98 110.79-2.15 109.84-1.2 108.89-0.25 107.89 0.03 106.89 0.3 106.09 0.3L106.09 0.3Q104.34 0.3 103.24-0.38 102.14-1.05 101.49-2.1 100.84-3.15 100.59-4.45 100.34-5.75 100.34-6.95L100.34-6.95 100.34-34.3ZM111.14-34.3L116.14-35 116.14-8Q116.14-7.5 116.19-6.75 116.24-6 116.46-5.28 116.69-4.55 117.14-4.03 117.59-3.5 118.39-3.5L118.39-3.5Q120.84-3.5 121.99-8.95L121.99-8.95 123.84-8.95Q123.29-5.8 122.44-3.98 121.59-2.15 120.64-1.2 119.69-0.25 118.69 0.03 117.69 0.3 116.89 0.3L116.89 0.3Q115.14 0.3 114.04-0.38 112.94-1.05 112.29-2.1 111.64-3.15 111.39-4.45 111.14-5.75 111.14-6.95L111.14-6.95 111.14-34.3ZM135.34-25L140.34-25 140.34-8Q140.34-7.5 140.39-6.75 140.44-6 140.66-5.28 140.89-4.55 141.34-4.03 141.79-3.5 142.59-3.5L142.59-3.5Q145.04-3.5 146.19-8.95L146.19-8.95 148.04-8.95Q147.49-5.8 146.64-3.98 145.79-2.15 144.84-1.2 143.89-0.25 142.89 0.03 141.89 0.3 141.09 0.3L141.09 0.3Q139.94 0.3 139.11-0.1 138.28-0.5 137.71-1.15 137.14-1.8 136.78-2.65 136.44-3.5 136.24-4.45L136.24-4.45Q135.49-2.5 133.81-1.1 132.14 0.3 129.74 0.3L129.74 0.3Q128.24 0.3 126.71-0.3 125.19-0.9 123.96-2.27 122.74-3.65 121.96-5.83 121.19-8 121.19-11.15L121.19-11.15Q121.19-13.45 121.71-15.95 122.24-18.45 123.39-20.5 124.54-22.55 126.34-23.9 128.14-25.25 130.69-25.25L130.69-25.25Q131.28-25.25 131.96-25.13 132.64-25 133.26-24.7 133.89-24.4 134.44-23.88 134.99-23.35 135.34-22.6L135.34-22.6 135.34-25ZM130.99-3.5L130.99-3.5Q131.74-3.5 132.51-3.93 133.28-4.35 133.91-5.08 134.53-5.8 134.94-6.8 135.34-7.8 135.34-8.95L135.34-8.95 135.34-20.35Q134.99-21.15 134.26-21.83 133.53-22.5 132.39-22.5L132.39-22.5Q130.78-22.5 129.64-21.43 128.49-20.35 127.79-18.73 127.09-17.1 126.76-15.18 126.44-13.25 126.44-11.5L126.44-11.5Q126.44-7.2 127.61-5.35 128.78-3.5 130.99-3.5ZM146.13-34.3L151.13-35 151.13-21.2Q151.88-22.55 152.66-23.38 153.43-24.2 154.23-24.6 155.03-25 155.76-25.13 156.48-25.25 157.13-25.25L157.13-25.25Q159.38-25.25 160.76-24.4 162.13-23.55 162.83-22.23 163.53-20.9 163.76-19.33 163.98-17.75 163.98-16.3L163.98-16.3Q163.98-15.4 163.93-14.33 163.88-13.25 163.83-12.13 163.78-11 163.73-9.88 163.68-8.75 163.68-7.8L163.68-7.8Q163.68-7.4 163.73-6.68 163.78-5.95 163.98-5.25 164.18-4.55 164.63-4.03 165.08-3.5 165.93-3.5L165.93-3.5Q167.08-3.5 168.01-4.8 168.93-6.1 169.53-8.95L169.53-8.95 171.38-8.95Q170.83-5.8 169.98-3.98 169.13-2.15 168.18-1.2 167.23-0.25 166.28 0.03 165.33 0.3 164.53 0.3L164.53 0.3Q162.93 0.3 161.83-0.33 160.73-0.95 160.03-2 159.33-3.05 159.01-4.45 158.68-5.85 158.68-7.35L158.68-7.35Q158.68-7.8 158.71-9.03 158.73-10.25 158.76-11.65 158.78-13.05 158.81-14.3 158.83-15.55 158.83-16.05L158.83-16.05Q158.83-17.65 158.58-18.7 158.33-19.75 157.88-20.35 157.43-20.95 156.86-21.2 156.28-21.45 155.63-21.45L155.63-21.45Q154.08-21.45 152.96-20.2 151.83-18.95 151.13-16L151.13-16 151.13 0 146.13 0 146.13-34.3Z" opacity="1" transform="matrix(1,0,0,1,0,0)" fill="#374151" class="undefined-text-0" data-fill-palette-color="primary" id="text-0"></path></svg></g></svg></g></svg></g></svg></g><g></g></svg></g></svg></g></svg></g><g><path d="M84.046 78.814A122.216 122.216 0 0 1 311.474 78.814L305.987 78.814A116.729 116.729 0 0 0 89.533 78.814L84.046 78.814M84.046 168.386A122.216 122.216 0 0 0 311.474 168.386L305.987 168.386A116.729 116.729 0 0 1 89.533 168.386L84.046 168.386" fill="#374151" stroke="transparent" data-fill-palette-color="tertiary"></path></g></svg></g><defs></defs></svg><rect width="395.52" height="247.2" fill="none" stroke="none" visibility="hidden"></rect></g></svg></g></svg>